<?xml version="1.0" encoding="iso-8859-1"?>
<!-- Generator: Adobe Illustrator 19.0.0, SVG Export Plug-In . SVG Version: 6.00 Build 0)  -->
<svg version="1.1" id="Capa_1" xmlns="http://www.w3.org/2000/svg" xmlns:xlink="http://www.w3.org/1999/xlink" x="0px" y="0px"
	 viewBox="0 0 512 512" style="enable-background:new 0 0 512 512;" xml:space="preserve">
<rect y="100.308" style="fill:#CFDCE5;" width="512" height="311.384"/>
<g>
	<rect x="256" y="172.612" style="fill:#FFFFFF;" width="212.736" height="8"/>
	<rect x="256" y="222.188" style="fill:#FFFFFF;" width="212.736" height="8"/>
	<rect x="256" y="271.772" style="fill:#FFFFFF;" width="212.736" height="8"/>
	<rect x="256" y="321.356" style="fill:#FFFFFF;" width="212.736" height="8"/>
</g>
<path d="M50.088,320.7c0,0,0-1.12,0-13.432c0-16.36,18.304-40.704,54.304-42.384v-11.408c-11.688-6.64-19.592-19.184-19.592-33.592
	c0-21.336,17.296-38.632,38.632-38.632s38.632,17.296,38.632,38.632c0,14.408-7.904,26.944-19.592,33.592v11.408
	c36,1.68,54.304,26.024,54.304,42.384c0,12.32,0,13.432,0,13.432H50.088z"/>
<g>
</g>
<g>
</g>
<g>
</g>
<g>
</g>
<g>
</g>
<g>
</g>
<g>
</g>
<g>
</g>
<g>
</g>
<g>
</g>
<g>
</g>
<g>
</g>
<g>
</g>
<g>
</g>
<g>
</g>
</svg>
