<?xml version="1.0" encoding="iso-8859-1"?>
<!-- Generator: Adobe Illustrator 19.0.0, SVG Export Plug-In . SVG Version: 6.00 Build 0)  -->
<svg version="1.1" id="Capa_1" xmlns="http://www.w3.org/2000/svg" xmlns:xlink="http://www.w3.org/1999/xlink" x="0px" y="0px"
	 viewBox="0 0 513.013 513.013" style="enable-background:new 0 0 513.013 513.013;" xml:space="preserve">
<path style="fill:#FFD983;" d="M207.886,213.061l180.272,180.272l-27.48,27.48c0,0-31.96-35.952-103.368-33.424L207.886,213.061z"/>
<path style="fill:#F2B851;" d="M207.886,213.061l180.272,180.272l27.48-27.48c0,0-35.952-31.96-33.424-103.368L207.886,213.061z"/>
<polygon style="fill:#E04F5F;" points="466.942,385.565 380.39,472.117 348.31,433.181 428.006,353.485 "/>
<ellipse transform="matrix(-0.7071 -0.7071 0.7071 -0.7071 323.2917 798.1473)" style="fill:#FFFFFF;" cx="326.948" cy="332.118" rx="16.48" ry="16.632"/>
<rect x="412.045" y="417.227" transform="matrix(-0.7071 0.7071 -0.7071 -0.7071 1094.2151 460.5667)" style="fill:#25B6D2;" width="79.351" height="79.351"/>
<rect x="37.134" y="198.806" transform="matrix(-0.7071 0.7071 -0.7071 -0.7071 485.6205 204.4615)" style="fill:#999999;" width="326.661" height="8"/>
<g>
	<ellipse style="fill:#8BA0AE;" cx="315.956" cy="87.32" rx="16.816" ry="16.816"/>
	<ellipse style="fill:#8BA0AE;" cx="92.526" cy="310.764" rx="16.816" ry="16.816"/>
</g>
<path style="fill:#222020;" d="M116.302,239.485c-34.28,0-66.52-13.352-90.768-37.6l5.656-5.656
	c46.936,46.944,123.288,46.928,170.224,0c46.92-46.928,46.92-123.296,0-170.224l5.656-5.656c50.048,50.048,50.048,131.496,0,181.536
	C182.83,226.133,150.59,239.485,116.302,239.485z"/>
<g>
	
		<rect x="184.101" y="186.446" transform="matrix(0.7071 -0.7071 0.7071 0.7071 -84.7031 201.1755)" style="fill:#FFD07D;" width="32.776" height="32.776"/>
	
		<rect x="11.97" y="182.669" transform="matrix(0.7071 -0.7071 0.7071 0.7071 -132.4487 78.3542)" style="fill:#FFD07D;" width="32.776" height="32.776"/>
	
		<rect x="187.831" y="6.788" transform="matrix(0.7071 -0.7071 0.7071 0.7071 43.4266 151.1928)" style="fill:#FFD07D;" width="32.776" height="32.776"/>
</g>
<g>
</g>
<g>
</g>
<g>
</g>
<g>
</g>
<g>
</g>
<g>
</g>
<g>
</g>
<g>
</g>
<g>
</g>
<g>
</g>
<g>
</g>
<g>
</g>
<g>
</g>
<g>
</g>
<g>
</g>
</svg>
