<?xml version="1.0" encoding="iso-8859-1"?>
<!-- Generator: Adobe Illustrator 19.0.0, SVG Export Plug-In . SVG Version: 6.00 Build 0)  -->
<svg version="1.1" id="Capa_1" xmlns="http://www.w3.org/2000/svg" xmlns:xlink="http://www.w3.org/1999/xlink" x="0px" y="0px"
	 viewBox="0 0 513.208 513.208" style="enable-background:new 0 0 513.208 513.208;" xml:space="preserve">
<rect y="40.44" style="fill:#EBF0F2;" width="423.088" height="322.88"/>
<polygon style="fill:#FFD07D;" points="211.544,40.44 211.544,217.392 0,119.296 0,40.44 "/>
<polygon style="fill:#F2B851;" points="211.544,40.44 211.544,217.392 423.088,119.296 423.088,40.44 "/>
<g>
	<polygon style="fill:#CFDCE5;" points="105.768,168.344 0,363.32 0,119.296 	"/>
	<polygon style="fill:#CFDCE5;" points="317.312,168.344 423.088,363.32 423.088,119.296 	"/>
</g>
<path style="fill:#006EDB;" d="M447.056,459.608c-21.928,9.864-40.936,13.16-66.88,13.16c-60.672,0-114.032-43.496-114.032-115.128
	c0-74.552,54.088-139.24,136.688-139.24c64.328,0,110.376,44.216,110.376,105.616c0,53.36-29.968,86.984-69.44,86.984
	c-17.176,0-29.608-8.776-31.44-28.144H411.6C400.272,401.496,383.816,411,364.448,411c-23.76,0-40.928-17.536-40.928-47.504
	c0-44.592,32.888-85.16,85.512-85.16c16.088,0,34.36,4.016,43.496,9.136l-10.96,67.616c-3.656,21.56-1.096,31.432,9.136,31.8
	c15.72,0.36,35.456-19.744,35.456-61.768c0-47.512-30.696-84.432-87.352-84.432c-55.912,0-104.888,43.856-104.888,113.664
	c0,61.04,39.112,95.76,93.56,95.76c18.64,0,38.376-4.024,53-11.696L447.056,459.608z M414.528,308.664
	c-2.92-0.728-6.576-1.464-11.328-1.464c-24.128,0-43.128,23.76-43.128,51.896c0,13.888,6.208,22.664,18.272,22.664
	c13.52,0,27.776-17.176,31.064-38.376L414.528,308.664z"/>
<g>
</g>
<g>
</g>
<g>
</g>
<g>
</g>
<g>
</g>
<g>
</g>
<g>
</g>
<g>
</g>
<g>
</g>
<g>
</g>
<g>
</g>
<g>
</g>
<g>
</g>
<g>
</g>
<g>
</g>
</svg>
