<?xml version="1.0" encoding="iso-8859-1"?>
<!-- Generator: Adobe Illustrator 19.0.0, SVG Export Plug-In . SVG Version: 6.00 Build 0)  -->
<svg version="1.1" id="Capa_1" xmlns="http://www.w3.org/2000/svg" xmlns:xlink="http://www.w3.org/1999/xlink" x="0px" y="0px"
	 viewBox="0 0 512 512" style="enable-background:new 0 0 512 512;" xml:space="preserve">
<path d="M0,355.2v-324c0-5.6,4.8-10.4,10.4-10.4h491.2c5.6,0,10.4,4.8,10.4,10.4v324H0z"/>
<g>
	<path style="fill:#CFDCE5;" d="M512,355.2v41.6c0,5.6-4.8,10.4-10.4,10.4H10.4c-5.6,0-10.4-4.8-10.4-10.4v-41.6H512z"/>
	<rect x="146.4" y="480.8" style="fill:#CFDCE5;" width="219.2" height="10.4"/>
</g>
<polygon style="fill:#AAC1CE;" points="328.8,480.8 183.2,480.8 193.6,407.2 318.4,407.2 "/>
<rect x="20.8" y="41.6" style="fill:#FFFFFF;" width="470.4" height="292.8"/>
<polygon style="fill:#8BA0AE;" points="318.4,407.2 193.6,407.2 187.792,448.28 320.272,420.424 "/>
<path style="fill:#32BEA6;" d="M333.088,157.68c-8.272-2.976-17.144-4.68-26.44-4.68c-38.8,0-70.92,28.272-77.088,65.328
	c8.272,2.976,17.144,4.68,26.44,4.68C294.8,223,326.92,194.728,333.088,157.68z"/>
<path style="fill:#FFCE54;" d="M256,66.52c-43.208,0-78.24,35.032-78.24,78.24c0,4.408,0.384,8.728,1.088,12.944
	c8.288-2.992,17.192-4.704,26.512-4.704c19.336,0,37.008,7.032,50.64,18.664C269.632,160.032,287.304,153,306.648,153
	c9.296,0,18.168,1.704,26.44,4.68c0.704-4.208,1.152-8.504,1.152-12.92C334.24,101.552,299.208,66.52,256,66.52z"/>
<path d="M229.56,218.32c8.272,2.976,17.144,4.68,26.44,4.68c9.296,0,18.184-1.664,26.448-4.64
	c-3.088-18.6-12.72-34.992-26.448-46.704C242.28,183.368,232.648,199.736,229.56,218.32z"/>
<path style="fill:#EC87C0;" d="M178.848,157.704c-30.144,10.872-51.728,39.648-51.728,73.536c0,43.208,35.032,78.24,78.24,78.24
	c19.328,0,36.992-7.048,50.64-18.664c-16.864-14.352-27.6-35.696-27.6-59.576c0-4.408,0.456-8.704,1.152-12.92
	C203.304,208.88,183.544,185.856,178.848,157.704z"/>
<path style="fill:#E04F5F;" d="M178.848,157.704c4.704,28.152,24.456,51.176,50.712,60.616c3.096-18.584,12.72-34.952,26.44-46.664
	c-13.632-11.632-31.304-18.664-50.64-18.664C196.032,153,187.136,154.712,178.848,157.704z"/>
<path style="fill:#25B6D2;" d="M333.088,157.68c-4.688,28.176-24.408,51.24-50.64,60.688c0.696,4.2,1.144,8.48,1.144,12.872
	c0,23.88-10.728,45.224-27.6,59.576c13.656,11.616,31.312,18.664,50.64,18.664c43.208,0,78.24-35.032,78.24-78.24
	C384.88,197.32,363.264,168.528,333.088,157.68z"/>
<path style="fill:#5D9CEC;" d="M283.6,231.24c0-4.392-0.448-8.672-1.144-12.872c-8.264,2.976-17.152,4.64-26.448,4.64
	c-9.296,0-18.168-1.704-26.44-4.68c-0.704,4.208-1.152,8.504-1.152,12.92c0,23.88,10.728,45.224,27.6,59.576
	C272.864,276.464,283.6,255.12,283.6,231.24z"/>
<g>
</g>
<g>
</g>
<g>
</g>
<g>
</g>
<g>
</g>
<g>
</g>
<g>
</g>
<g>
</g>
<g>
</g>
<g>
</g>
<g>
</g>
<g>
</g>
<g>
</g>
<g>
</g>
<g>
</g>
</svg>
