<svg height="488pt" viewBox="0 -26 488 488" width="488pt" xmlns="http://www.w3.org/2000/svg"><g fill="#263238"><path d="m196 388c-2.207031 0-4-1.792969-4-4v-28c0-2.207031 1.792969-4 4-4s4 1.792969 4 4v28c0 2.207031-1.792969 4-4 4zm0 0"/><path d="m292 388c-2.207031 0-4-1.792969-4-4v-28c0-2.207031 1.792969-4 4-4s4 1.792969 4 4v28c0 2.207031-1.792969 4-4 4zm0 0"/><path d="m324 436h-160c-6.617188 0-12-5.382812-12-12v-16c0-6.617188 5.382812-12 12-12h160c6.617188 0 12 5.382812 12 12v16c0 6.617188-5.382812 12-12 12zm-160-32c-2.207031 0-4 1.800781-4 4v16c0 2.199219 1.792969 4 4 4h160c2.207031 0 4-1.800781 4-4v-16c0-2.199219-1.792969-4-4-4zm0 0"/><path d="m484 304h-480c-2.207031 0-4-1.792969-4-4s1.792969-4 4-4h480c2.207031 0 4 1.792969 4 4s-1.792969 4-4 4zm0 0"/><path d="m444 344h-400c-24.265625 0-44-19.742188-44-44v-256c0-24.257812 19.734375-44 44-44h400c24.265625 0 44 19.742188 44 44v256c0 24.257812-19.734375 44-44 44zm-400-336c-19.847656 0-36 16.152344-36 36v256c0 19.847656 16.152344 36 36 36h400c19.847656 0 36-16.152344 36-36v-256c0-19.847656-16.152344-36-36-36zm0 0"/><path d="m484 48h-480c-2.207031 0-4-1.792969-4-4s1.792969-4 4-4h480c2.207031 0 4 1.792969 4 4s-1.792969 4-4 4zm0 0"/><path d="m440 388h-60c-2.207031 0-4-1.792969-4-4s1.792969-4 4-4h60c2.207031 0 4 1.792969 4 4s-1.792969 4-4 4zm0 0"/><path d="m464 388h-8c-2.207031 0-4-1.792969-4-4s1.792969-4 4-4h8c2.207031 0 4 1.792969 4 4s-1.792969 4-4 4zm0 0"/><path d="m108 388h-60c-2.207031 0-4-1.792969-4-4s1.792969-4 4-4h60c2.207031 0 4 1.792969 4 4s-1.792969 4-4 4zm0 0"/><path d="m32 388h-8c-2.207031 0-4-1.792969-4-4s1.792969-4 4-4h8c2.207031 0 4 1.792969 4 4s-1.792969 4-4 4zm0 0"/></g><path d="m444 128h-192v-24c0-4.414062 3.585938-8 8-8h176c4.414062 0 8 3.585938 8 8zm0 0" fill="#ff5252"/><path d="m444 132h-192c-2.207031 0-4-1.792969-4-4v-24c0-6.617188 5.382812-12 12-12h176c6.617188 0 12 5.382812 12 12v24c0 2.207031-1.792969 4-4 4zm-188-8h184v-20c0-2.199219-1.792969-4-4-4h-176c-2.207031 0-4 1.800781-4 4zm0 0" fill="#263238"/><path d="m436 252h-176c-6.617188 0-12-5.382812-12-12v-112c0-2.207031 1.792969-4 4-4h192c2.207031 0 4 1.792969 4 4v112c0 6.617188-5.382812 12-12 12zm-180-120v108c0 2.199219 1.792969 4 4 4h176c2.207031 0 4-1.800781 4-4v-108zm0 0" fill="#263238"/><path d="m328 210c-.832031 0-1.671875-.257812-2.390625-.800781l-24-18c-1.007813-.757813-1.601563-1.941407-1.601563-3.199219s.59375-2.449219 1.601563-3.199219l24-18c1.765625-1.328125 4.269531-.960937 5.597656.808594 1.328125 1.765625.96875 4.269531-.800781 5.597656l-19.726562 14.800781 19.71875 14.792969c1.769531 1.328125 2.128906 3.832031.800781 5.597657-.785157 1.050781-1.984375 1.601562-3.199219 1.601562zm0 0" fill="#263238"/><path d="m368 210c-1.214844 0-2.414062-.550781-3.199219-1.601562-1.328125-1.765626-.96875-4.269532.800781-5.597657l19.726563-14.800781-19.726563-14.800781c-1.769531-1.328125-2.128906-3.832031-.800781-5.597657 1.335938-1.761718 3.832031-2.128906 5.597657-.808593l24 18c1.007812.757812 1.601562 1.941406 1.601562 3.199219 0 1.253906-.59375 2.449218-1.601562 3.199218l-24 18c-.71875.550782-1.558594.808594-2.398438.808594zm0 0" fill="#263238"/><path d="m344 208c-.320312 0-.648438-.039062-.976562-.121094-2.144532-.535156-3.449219-2.710937-2.910157-4.847656l8-32c.527344-2.152344 2.703125-3.445312 4.847657-2.910156 2.144531.535156 3.445312 2.710937 2.910156 4.847656l-8 32c-.445313 1.824219-2.070313 3.03125-3.871094 3.03125zm0 0" fill="#263238"/><path d="m72 148v-40h40v40zm0 0" fill="#40c4ff"/><path d="m112 152h-40c-2.207031 0-4-1.792969-4-4v-40c0-2.207031 1.792969-4 4-4h40c2.207031 0 4 1.792969 4 4v40c0 2.207031-1.792969 4-4 4zm-36-8h32v-32h-32zm0 0" fill="#263238"/><path d="m72 188v-40h40v40zm0 0" fill="#40c4ff"/><path d="m112 192h-40c-2.207031 0-4-1.792969-4-4v-40c0-2.207031 1.792969-4 4-4h40c2.207031 0 4 1.792969 4 4v40c0 2.207031-1.792969 4-4 4zm-36-8h32v-32h-32zm0 0" fill="#263238"/><path d="m72 228v-40h40v40zm0 0" fill="#40c4ff"/><path d="m112 232h-40c-2.207031 0-4-1.792969-4-4v-40c0-2.207031 1.792969-4 4-4h40c2.207031 0 4 1.792969 4 4v40c0 2.207031-1.792969 4-4 4zm-36-8h32v-32h-32zm0 0" fill="#263238"/><path d="m112 228v-40h40v40zm0 0" fill="#40c4ff"/><path d="m152 232h-40c-2.207031 0-4-1.792969-4-4v-40c0-2.207031 1.792969-4 4-4h40c2.207031 0 4 1.792969 4 4v40c0 2.207031-1.792969 4-4 4zm-36-8h32v-32h-32zm0 0" fill="#263238"/><path d="m212 304c-2.207031 0-4-1.792969-4-4v-256c0-2.207031 1.792969-4 4-4s4 1.792969 4 4v256c0 2.207031-1.792969 4-4 4zm0 0" fill="#263238"/></svg>